<?xml version="1.0" encoding="iso-8859-1"?>
<!-- Generator: Adobe Illustrator 19.0.0, SVG Export Plug-In . SVG Version: 6.00 Build 0)  -->
<svg version="1.1" id="Layer_1" xmlns="http://www.w3.org/2000/svg" xmlns:xlink="http://www.w3.org/1999/xlink" x="0px" y="0px"
	 viewBox="0 0 392.986 392.986" style="enable-background:new 0 0 392.986 392.986;" xml:space="preserve">
<path style="fill:#FF667C;" d="M285.156,218.44H107.507c-47.709,0-86.174,38.529-86.174,86.174v88.372h350.319v-88.307
	C371.329,256.97,332.865,218.44,285.156,218.44z"/>
<polygon style="fill:#D34A5E;" points="262.594,218.44 130.069,218.44 130.069,333.511 196.331,270.869 262.594,333.511 "/>
<g>
	<circle style="fill:#EEB490;" cx="196.331" cy="208.485" r="49.002"/>
	<path style="fill:#EEB490;" d="M123.152,92.057c-0.259,1.552-0.388,3.168-0.388,4.848v52.493
		c-14.287-1.681-25.406-13.834-25.406-28.638C97.293,105.826,108.606,93.543,123.152,92.057z"/>
	<path style="fill:#EEB490;" d="M295.37,120.76c0,14.739-11.119,26.958-25.406,28.638V96.905c0-1.616-0.129-3.232-0.323-4.848
		C284.121,93.608,295.37,105.826,295.37,120.76z"/>
</g>
<path style="fill:#FACCB4;" d="M269.964,96.905v53.98c0,41.374-34.069,74.667-75.701,73.632
	c-40.081-1.293-71.564-35.103-71.564-75.184V96.905c0.065-2.909,0.453-5.818,1.164-8.469c4.978,2.263,10.537,3.491,16.356,3.491
	c9.697,0,18.36-3.426,25.147-9.18c6.529,9.956,17.842,16.743,30.901,16.743c12.865,0,24.113-6.529,30.901-16.743
	c6.788,5.754,15.709,9.18,25.147,9.18c5.883,0,11.442-1.293,16.42-3.556C269.576,91.087,269.964,93.931,269.964,96.905z"/>
<g>
	<rect x="21.333" y="337.972" style="fill:#EEB490;" width="59.216" height="55.014"/>
	<rect x="312.113" y="337.972" style="fill:#EEB490;" width="59.216" height="55.014"/>
</g>
<path style="fill:#56545F;" d="M252.38,13.059c-8.663,0-16.485,2.909-23.079,7.628C223.289,8.404,210.683,0,196.267,0
	c-14.416,0-26.958,8.404-33.034,20.428c-6.529-4.719-14.416-7.628-23.079-7.628c-21.721,0-39.564,17.584-39.564,39.564
	c0,21.721,17.584,39.564,39.564,39.564c9.697,0,18.36-3.426,25.147-9.18c6.529,9.956,17.842,16.743,30.901,16.743
	c12.865,0,24.113-6.529,30.901-16.743c6.788,5.754,15.709,9.18,25.147,9.18c21.721,0,39.564-17.584,39.564-39.564
	C291.685,30.578,274.166,13.059,252.38,13.059z"/>
<g>
</g>
<g>
</g>
<g>
</g>
<g>
</g>
<g>
</g>
<g>
</g>
<g>
</g>
<g>
</g>
<g>
</g>
<g>
</g>
<g>
</g>
<g>
</g>
<g>
</g>
<g>
</g>
<g>
</g>
</svg>
