<?xml version="1.0" encoding="iso-8859-1"?>
<!-- Generator: Adobe Illustrator 19.0.0, SVG Export Plug-In . SVG Version: 6.00 Build 0)  -->
<svg version="1.1" id="Layer_1" xmlns="http://www.w3.org/2000/svg" xmlns:xlink="http://www.w3.org/1999/xlink" x="0px" y="0px"
	 viewBox="0 0 393.051 393.051" style="enable-background:new 0 0 393.051 393.051;" xml:space="preserve">
<path style="fill:#EEB490;" d="M323.491,259.426l-78.869-14.158v-50.295h-95.935v50.295l-78.869,14.158
	c-29.091,4.978-50.036,30.384-50.036,59.992v73.632h353.745v-73.632C373.527,289.81,352.582,264.404,323.491,259.426z"/>
<path style="fill:#D34A5E;" d="M75.636,62.642l-51.329,99.556l0,0c49.002,25.147,109.253,6.012,134.659-42.99l51.329-99.556l0,0
	C161.293-5.754,101.042,13.64,75.636,62.642z"/>
<circle style="fill:#F1F3F7;" cx="194.844" cy="32.776" r="32.776"/>
<ellipse style="fill:#FF667C;" cx="196.655" cy="113.196" rx="90.117" ry="91.733"/>
<path style="fill:#FACCB4;" d="M264.275,130.78c-0.194,0-0.323,0-0.517,0v-11.572c-19.653-12.024-42.473-18.877-67.103-18.877
	c-24.63,0-47.451,6.788-67.103,18.877v11.572c-0.194,0-0.323,0-0.517,0c-13.899,0-25.147,11.248-25.147,25.147
	s11.248,25.147,25.147,25.147c0.194,0,0.388,0,0.582,0c0.97,36.073,30.707,65.228,67.038,65.228s66.069-29.156,67.038-65.228
	c0.194,0,0.388,0,0.582,0c13.899,0,25.147-11.248,25.147-25.147S278.174,130.78,264.275,130.78z"/>
<path style="fill:#9D90C5;" d="M19.782,393.051h353.745v-73.632c0-1.293,0-2.327-0.259-3.685
	c-19.394,1.81-57.406,8.145-74.15,27.281H196.655l0,0H93.931c-16.743-19.135-54.756-25.406-74.149-27.281
	c0,1.293-0.259,2.327-0.259,3.685v73.632H19.782z"/>
<g>
</g>
<g>
</g>
<g>
</g>
<g>
</g>
<g>
</g>
<g>
</g>
<g>
</g>
<g>
</g>
<g>
</g>
<g>
</g>
<g>
</g>
<g>
</g>
<g>
</g>
<g>
</g>
<g>
</g>
</svg>
